<svg width="130" height="116" viewBox="0 0 130 116" fill="none" xmlns="http://www.w3.org/2000/svg">
<g filter="url(#filter0_d_15_3537)">
<path fill-rule="evenodd" clip-rule="evenodd" d="M53.0782 26.3492C55.7574 26.9217 58.1617 27.8376 61.5965 29.555L64.871 31.2037L68.1455 29.555C73.0916 27.0591 76.618 26.0057 80.0986 26.0057C85.4797 26.0057 89.1206 28.9825 89.8992 34.066C90.4029 37.2718 89.3038 42.1492 87.0597 46.7289C86.4415 47.9655 85.9377 49.0646 85.9377 49.1562C85.9377 49.2478 86.762 50.3011 87.7696 51.5147C93.7003 58.7049 97.9824 66.3988 99.3105 72.2609C99.7684 74.2759 99.8371 77.6878 99.4479 79.1304C98.2571 83.527 94.7995 86 89.8534 86C83.9455 85.9771 76.4577 82.5881 67.573 75.9017L64.8252 73.8409L63.5658 74.8255C57.0397 79.9548 50.4907 83.6643 45.2469 85.2214C42.3159 86.0916 38.6979 86.229 36.5684 85.5878C33.935 84.7864 32.1947 83.3667 31.0269 81.0768C29.5156 78.0771 29.6759 73.6119 31.4849 68.7116C33.3626 63.6052 37.9881 56.0716 42.4533 50.8965C43.209 50.0263 43.8043 49.2707 43.8043 49.1562C43.8043 49.0646 43.3235 48.0342 42.751 46.8663C38.9727 39.1266 38.7666 32.6234 42.1785 28.9367C44.4913 26.395 48.6588 25.4104 53.0782 26.3492ZM47.9945 34.295C48.1319 34.1805 48.4754 34.0202 48.7273 33.9515C49.5058 33.7683 49.7348 33.7912 51.5209 34.1576C53.1925 34.5011 54.1084 34.7987 56.467 35.8292L57.589 36.31L56.238 37.3863C55.5052 37.9816 53.742 39.4929 52.3223 40.7295C50.9026 41.9889 49.7119 42.9735 49.6661 42.9277C49.4142 42.6758 48.3838 39.9051 48.0632 38.6915C47.6281 36.9741 47.5823 34.6384 47.9945 34.295ZM78.152 34.1347C76.5949 34.4782 75.4042 34.8904 73.3891 35.7834L72.1755 36.3101L73.9616 37.7756C74.9462 38.577 76.6865 40.0654 77.8085 41.073C78.9534 42.1034 79.9381 42.9507 80.0068 42.9507C80.2358 42.9507 81.2662 40.2944 81.6784 38.6686C82.1363 36.9512 82.1592 34.6385 81.7471 34.295C81.2433 33.8599 79.6862 33.7912 78.152 34.1347ZM63.1308 42.0805C52.0708 50.3927 41.8122 63.0098 38.7438 72.0547C37.9194 74.4362 37.6905 77.2298 38.2629 77.8023C38.7896 78.329 41.4 78.1 43.8044 77.3214C46.2774 76.52 50.0786 74.6194 51.8876 73.3142C53.2386 72.3295 54.3606 70.8411 54.7957 69.4214C54.956 68.8947 55.0476 67.8185 54.9789 66.7652C54.8415 64.5669 54.5438 63.9715 51.2464 59.8956L48.7734 56.8272L49.6664 56.0486C50.9487 54.9266 52.7806 54.1252 54.4293 54.0107C56.2383 53.8504 56.6276 54.0565 58.4595 56.2089C60.6577 58.7736 62.3064 59.6666 64.8711 59.6666C67.4357 59.6666 69.0844 58.7736 71.2827 56.2089C73.1146 54.0565 73.5038 53.8504 75.3128 54.0107C76.9615 54.1252 78.7934 54.9266 80.0757 56.0486L80.9688 56.8272L78.4957 59.8956C75.1983 63.9715 74.9006 64.5669 74.7632 66.7652C74.5343 70.8411 76.2746 72.902 82.503 75.9475C85.6859 77.5046 89.052 78.3748 90.6549 78.0771C91.6853 77.8939 91.983 77.2069 91.7998 75.3979C91.1586 69.1466 83.8082 57.7431 74.8777 49.2249C71.3056 45.7901 65.3977 40.8898 64.8711 40.8898C64.7795 40.8898 64.0009 41.4165 63.1308 42.0805Z" fill="#2563EB"/>
</g>
<defs>
<filter id="filter0_d_15_3537" x="0" y="0.905661" width="129.702" height="120" filterUnits="userSpaceOnUse" color-interpolation-filters="sRGB">
<feFlood flood-opacity="0" result="BackgroundImageFix"/>
<feColorMatrix in="SourceAlpha" type="matrix" values="0 0 0 0 0 0 0 0 0 0 0 0 0 0 0 0 0 0 127 0" result="hardAlpha"/>
<feOffset dy="4.90566"/>
<feGaussianBlur stdDeviation="15"/>
<feComposite in2="hardAlpha" operator="out"/>
<feColorMatrix type="matrix" values="0 0 0 0 0.145098 0 0 0 0 0.388235 0 0 0 0 0.921569 0 0 0 0.19 0"/>
<feBlend mode="normal" in2="BackgroundImageFix" result="effect1_dropShadow_15_3537"/>
<feBlend mode="normal" in="SourceGraphic" in2="effect1_dropShadow_15_3537" result="shape"/>
</filter>
</defs>
</svg>
