<svg width="998" height="896" viewBox="0 0 998 896" fill="none" xmlns="http://www.w3.org/2000/svg">
<g filter="url(#filter0_d_110_79)">
<path fill-rule="evenodd" clip-rule="evenodd" d="M370.014 111.783C399.038 117.985 425.085 127.907 462.296 146.513L497.769 164.373L533.243 146.513C586.826 119.473 625.028 108.062 662.734 108.062C721.03 108.062 760.473 140.311 768.908 195.382C774.365 230.111 762.458 282.95 738.147 332.564C731.449 345.959 725.992 357.866 725.992 358.859C725.992 359.851 734.922 371.262 745.837 384.41C810.087 462.303 856.476 545.654 870.863 609.159C875.825 630.989 876.569 667.951 872.352 683.58C859.452 731.209 821.994 758 768.411 758C704.41 757.752 623.292 721.038 527.041 648.602L497.273 626.276L483.629 636.943C412.93 692.51 341.983 732.697 285.175 749.566C253.422 758.992 214.228 760.481 191.157 753.535C162.63 744.852 143.776 729.472 131.125 704.665C114.752 672.168 116.489 623.795 136.086 570.709C156.428 515.39 206.538 433.775 254.911 377.712C263.097 368.285 269.547 360.099 269.547 358.859C269.547 357.866 264.337 346.703 258.136 334.052C217.204 250.205 214.972 179.754 251.934 139.815C276.989 112.279 322.137 101.612 370.014 111.783ZM314.941 197.863C316.43 196.622 320.151 194.886 322.88 194.142C331.314 192.157 333.795 192.405 353.144 196.374C371.253 200.095 381.176 203.32 406.727 214.483L418.882 219.693L404.246 231.352C396.308 237.802 377.206 254.174 361.826 267.57C346.446 281.214 333.547 291.88 333.05 291.384C330.322 288.656 319.159 258.639 315.686 245.492C310.972 226.887 310.476 201.584 314.941 197.863ZM641.646 196.126C624.777 199.847 611.878 204.312 590.048 213.987L576.9 219.693L596.249 235.569C606.916 244.251 625.769 260.376 637.925 271.291C650.328 282.454 660.995 291.632 661.739 291.632C664.22 291.632 675.383 262.857 679.848 245.244C684.81 226.639 685.058 201.584 680.592 197.863C675.135 193.149 658.266 192.405 641.646 196.126ZM478.922 282.205C359.105 372.254 247.97 508.94 214.729 606.926C205.799 632.725 203.318 662.99 209.52 669.191C215.225 674.897 243.505 672.416 269.552 663.982C296.344 655.3 337.523 634.71 357.12 620.57C371.756 609.903 383.912 593.779 388.625 578.399C390.361 572.693 391.354 561.034 390.609 549.623C389.121 525.808 385.896 519.358 350.174 475.202L323.383 441.961L333.058 433.527C346.949 421.372 366.795 412.689 384.656 411.449C404.253 409.712 408.47 411.945 428.316 435.263C452.13 463.047 469.991 472.722 497.775 472.722C525.558 472.722 543.419 463.047 567.234 435.263C587.079 411.945 591.296 409.712 610.894 411.449C628.755 412.689 648.6 421.372 662.492 433.527L672.166 441.961L645.375 475.202C609.653 519.358 606.428 525.808 604.94 549.623C602.459 593.779 621.313 616.105 688.787 649.098C723.268 665.966 759.734 675.393 777.099 672.168C788.262 670.184 791.487 662.742 789.503 643.144C782.557 575.422 702.927 451.884 606.18 359.603C567.482 322.392 503.48 269.306 497.775 269.306C496.782 269.306 488.348 275.011 478.922 282.205Z" fill="#2563EB"/>
</g>
<g filter="url(#filter1_d_110_79)">
<rect x="454.905" y="345.108" width="85.8491" height="85.8491" rx="42.9245" fill="#FA8626"/>
</g>
<defs>
<filter id="filter0_d_110_79" x="-2.5" y="0.5" width="1000.1" height="895" filterUnits="userSpaceOnUse" color-interpolation-filters="sRGB">
<feFlood flood-opacity="0" result="BackgroundImageFix"/>
<feColorMatrix in="SourceAlpha" type="matrix" values="0 0 0 0 0 0 0 0 0 0 0 0 0 0 0 0 0 0 127 0" result="hardAlpha"/>
<feOffset dy="15"/>
<feGaussianBlur stdDeviation="61.25"/>
<feComposite in2="hardAlpha" operator="out"/>
<feColorMatrix type="matrix" values="0 0 0 0 0.145098 0 0 0 0 0.388235 0 0 0 0 0.921569 0 0 0 0.41 0"/>
<feBlend mode="normal" in2="BackgroundImageFix" result="effect1_dropShadow_110_79"/>
<feBlend mode="normal" in="SourceGraphic" in2="effect1_dropShadow_110_79" result="shape"/>
</filter>
<filter id="filter1_d_110_79" x="378.905" y="269.108" width="237.849" height="237.849" filterUnits="userSpaceOnUse" color-interpolation-filters="sRGB">
<feFlood flood-opacity="0" result="BackgroundImageFix"/>
<feColorMatrix in="SourceAlpha" type="matrix" values="0 0 0 0 0 0 0 0 0 0 0 0 0 0 0 0 0 0 127 0" result="hardAlpha"/>
<feMorphology radius="10" operator="dilate" in="SourceAlpha" result="effect1_dropShadow_110_79"/>
<feOffset/>
<feGaussianBlur stdDeviation="33"/>
<feComposite in2="hardAlpha" operator="out"/>
<feColorMatrix type="matrix" values="0 0 0 0 0.980392 0 0 0 0 0.52549 0 0 0 0 0.14902 0 0 0 1 0"/>
<feBlend mode="normal" in2="BackgroundImageFix" result="effect1_dropShadow_110_79"/>
<feBlend mode="normal" in="SourceGraphic" in2="effect1_dropShadow_110_79" result="shape"/>
</filter>
</defs>
</svg>
